<svg width="993" height="400" viewBox="0 0 993 400" fill="none" xmlns="http://www.w3.org/2000/svg">
<path d="M989.603 0.679962H1.94824V395.742H989.603V0.679962Z" fill="white"/>
<path d="M239.188 186.102V285.504L268.262 268.845V169.521L239.188 186.102Z" fill="black"/>
<path d="M194.792 261.304V294.307L241.231 270.262V237.259L194.792 261.304Z" fill="black"/>
<path d="M195.028 227.749L108.984 178.086L108.748 211.561L194.792 261.302L195.028 227.749Z" fill="#FF9900"/>
<path d="M152.121 151.764L123.518 135.262L121.161 187.439L149.764 203.941L152.121 151.764Z" fill="#FF9900"/>
<path d="M181.029 168.659L267.074 118.998L238.156 102.103L152.112 151.764L181.029 168.659Z" fill="black"/>
<path d="M268.242 169.522L296.845 153.02L252.841 124.889L224.238 141.391L268.242 169.522Z" fill="black"/>
<path d="M881.166 195.698V211.461H867.654V241.579C867.654 247.678 867.773 251.243 868.01 252.276C868.291 253.261 868.874 254.082 869.768 254.739C870.706 255.396 871.832 255.724 873.146 255.724C874.973 255.724 877.625 255.09 881.096 253.824L882.785 269.164C878.188 271.135 872.983 272.12 867.165 272.12C863.6 272.12 860.385 271.533 857.521 270.361C854.662 269.141 852.548 267.593 851.19 265.716C849.877 263.793 848.963 261.212 848.444 257.976C848.025 255.677 847.812 251.033 847.812 244.042V211.461H838.736V195.698H847.812V180.85L867.654 169.31V195.698H881.166Z" fill="black"/>
<path d="M806.78 185.565V167.27H826.553V185.565H806.78ZM806.78 270.432V195.699H826.553V270.432H806.78Z" fill="black"/>
<path d="M702.844 167.27H744.084C752.247 167.27 758.321 167.621 762.306 168.325C766.341 168.982 769.931 170.389 773.077 172.547C776.267 174.705 778.914 177.591 781.027 181.203C783.136 184.768 784.193 188.779 784.193 193.236C784.193 198.068 782.879 202.501 780.252 206.536C777.674 210.57 774.153 213.597 769.699 215.614C775.985 217.443 780.815 220.563 784.193 224.973C787.57 229.383 789.259 234.566 789.259 240.524C789.259 245.216 788.158 249.79 785.951 254.247C783.793 258.657 780.815 262.199 777.017 264.873C773.264 267.5 768.617 269.118 763.082 269.728C759.61 270.103 751.235 270.338 737.96 270.432H702.844V167.27ZM723.674 184.44V208.295H737.328C745.442 208.295 750.484 208.178 752.454 207.943C756.02 207.521 758.815 206.301 760.83 204.284C762.894 202.22 763.926 199.522 763.926 196.192C763.926 193.002 763.037 190.421 761.254 188.451C759.516 186.434 756.914 185.214 753.442 184.792C751.378 184.557 745.442 184.44 735.64 184.44H723.674ZM723.674 225.466V253.05H742.958C750.464 253.05 755.225 252.84 757.24 252.417C760.336 251.854 762.849 250.494 764.77 248.336C766.741 246.131 767.728 243.199 767.728 239.539C767.728 236.443 766.978 233.816 765.477 231.658C763.975 229.5 761.793 227.928 758.928 226.943C756.114 225.958 749.97 225.466 740.494 225.466H723.674Z" fill="black"/>
<path d="M662.519 185.565V167.27H682.291V185.565H662.519ZM662.519 270.432V195.699H682.291V270.432H662.519Z" fill="black"/>
<path d="M532.83 195.699H551.057V205.903C557.58 197.975 565.343 194.01 574.351 194.01C579.136 194.01 583.289 194.996 586.805 196.966C590.326 198.936 593.21 201.916 595.462 205.903C598.746 201.916 602.286 198.936 606.089 196.966C609.886 194.996 613.946 194.01 618.262 194.01C623.748 194.01 628.395 195.136 632.193 197.388C635.995 199.593 638.835 202.853 640.711 207.169C642.069 210.36 642.751 215.52 642.751 222.651V270.432H622.978V227.718C622.978 220.305 622.296 215.52 620.933 213.362C619.106 210.547 616.291 209.14 612.489 209.14C609.723 209.14 607.121 209.984 604.681 211.673C602.242 213.362 600.479 215.848 599.402 219.132C598.321 222.369 597.783 227.507 597.783 234.544V270.432H578.01V229.477C578.01 222.205 577.659 217.514 576.953 215.403C576.252 213.292 575.146 211.72 573.644 210.688C572.193 209.656 570.197 209.14 567.664 209.14C564.617 209.14 561.872 209.961 559.432 211.603C556.993 213.245 555.235 215.614 554.153 218.71C553.121 221.806 552.607 226.944 552.607 234.121V270.432H532.83V195.699Z" fill="black"/>
<path d="M495.398 270.431V259.242C492.675 263.23 489.086 266.373 484.629 268.672C480.219 270.971 475.552 272.12 470.626 272.12C465.606 272.12 461.102 271.018 457.115 268.813C453.127 266.608 450.242 263.512 448.459 259.524C446.677 255.536 445.785 250.024 445.785 242.987V195.698H465.559V230.039C465.559 240.548 465.911 246.998 466.615 249.391C467.365 251.736 468.702 253.613 470.626 255.02C472.549 256.381 474.989 257.061 477.944 257.061C481.322 257.061 484.348 256.146 487.022 254.317C489.696 252.44 491.525 250.141 492.511 247.42C493.496 244.652 493.99 237.92 493.99 227.224V195.698H513.763V270.431H495.398Z" fill="black"/>
<path d="M358.806 270.431V168.114H379.636V253.05H431.428V270.431H358.806Z" fill="black"/>
</svg>
