<svg fill="none" height="24" viewBox="0 0 120 24" width="120" xmlns="http://www.w3.org/2000/svg"><path d="m27.8301 10.4888v12.4121l3.6304-2.0802v-12.40224z" fill="#000"/><path d="m22.2871 19.879v4.121l5.7989-3.0025v-4.121z" fill="#000"/><path d="m22.3165 15.689-10.7441-6.20121-.0294 4.17991 10.7441 6.211z" fill="#f90"/><path d="m16.9597 6.20122-3.5716-2.0606-.2943 6.51518 3.5715 2.0605z" fill="#f90"/><g fill="#000"><path d="m20.5678 8.31069 10.7441-6.20108-3.6108-2.10961-10.7441 6.20114z"/><path d="m31.4595 8.41844 3.5716-2.06053-5.4947-3.5127-3.5716 2.06053z"/><path d="m108.256 9.00358v1.96832h-1.687v3.7607c0 .7616.014 1.2068.043 1.3356.036.1231.109.2256.22.3076.117.082.258.123.422.123.228 0 .559-.0791.992-.2372l.211 1.9155c-.574.2461-1.224.3691-1.95.3691-.445 0-.847-.0733-1.204-.2197-.357-.1523-.621-.3457-.791-.58-.164-.2401-.278-.5623-.342-.9665-.053-.287-.08-.867-.08-1.7398v-4.0683h-1.133v-1.96832h1.133v-1.85408l2.479-1.441v3.29508z"/><path d="m98.9668 7.73865v-2.28455h2.4692v2.28455zm0 10.59705v-9.33172h2.4692v9.33172z"/><path d="m85.9883 5.4541h5.1495c1.0192 0 1.7777.04391 2.2759.13177.5038.08202.9515.25776 1.3443.52722.3983.26947.7295.62977.9928 1.08083.2639.44515.3952.94604.3952 1.50254 0 .60338-.164 1.15693-.492 1.66074-.3219.5038-.7616.8816-1.3178 1.1335.785.2285 1.3881.618 1.8098 1.1687.4218.5506.6327 1.1979.6327 1.9419 0 .5857-.1375 1.1569-.4125 1.7134-.2695.5507-.6419.9929-1.1161 1.3268-.4687.3281-1.0489.5302-1.7402.6063-.4335.0469-1.4786.0762-3.1368.0879h-4.3848zm2.6009 2.14396v2.97884h1.705c1.0131 0 1.6433-.0147 1.8894-.044.4452-.0527.7936-.205 1.0452-.4569.2577-.25776.3866-.59456.3866-1.01048 0-.39834-.111-.72053-.3336-.96657-.2171-.25189-.542-.4042-.9755-.45692-.2578-.02929-.999-.04397-2.223-.04397zm0 5.12284v3.4444h2.408c.9372 0 1.5317-.0263 1.7839-.079.3866-.0703.6999-.2402.9397-.5097.2461-.2753.3694-.6414.3694-1.0984 0-.3866-.0937-.7146-.2812-.9841s-.46-.4657-.817-.5887c-.3515-.123-1.1192-.1845-2.3025-.1845z"/><path d="m80.9531 7.73865v-2.28455h2.4696v2.28455zm0 10.59705v-9.33172h2.4696v9.33172z"/><path d="m64.7598 9.00434h2.2753v1.27406c.8146-.98991 1.7839-1.48494 2.9087-1.48494.5975 0 1.1161.12301 1.5551.36905.4397.24603.7998.61805 1.081 1.11589.41-.49784.8521-.86986 1.327-1.11589.4741-.24604.981-.36905 1.5199-.36905.6857 0 1.2654.14059 1.7402.42177.4742.27533.8287.68243 1.063 1.22137.1696.3983.2547 1.0427.2547 1.9331v5.9663h-2.469v-5.3336c0-.9256-.0851-1.5231-.2546-1.7926-.2288-.3514-.5803-.5272-1.0545-.5272-.3459 0-.6709.1055-.9755.3164-.3046.2108-.5241.5213-.6592.9314-.1344.4042-.2022 1.0457-.2022 1.9244v4.4812h-2.469v-5.1139c0-.908-.0438-1.4938-.132-1.7574-.0875-.2636-.225-.4599-.4125-.5888-.1819-.1288-.431-.1933-.7473-.1933-.3805 0-.7233.1026-1.028.3076-.3046.205-.5241.5008-.6591.8875-.1289.3866-.193 1.0281-.193 1.9243v4.534h-2.469z"/><path d="m60.0854 18.3356v-1.3971c-.3398.4979-.7879.8904-1.3444 1.1775-.5507.287-1.1335.4305-1.7486.4305-.6268 0-1.1892-.1376-1.6871-.413-.4979-.2753-.8582-.6619-1.0808-1.1598-.2226-.498-.3339-1.1863-.3339-2.0649v-5.90489h2.4691v4.28809c0 1.3121.0439 2.1176.1318 2.4163.0937.2929.2607.5273.5009.703.2402.1699.5448.2548.9138.2548.4218 0 .7996-.1142 1.1335-.3427.3339-.2343.5624-.5213.6854-.8611.123-.3456.1846-1.1862.1846-2.5218v-3.93659h2.469v9.33169z"/><path d="m43.0293 18.3357v-12.77613h2.6009v10.60583h6.4672v2.1703z"/></g></svg>